HIERARCHY
ROOT Pelvis
{
	OFFSET 0.000000 0.000000 0.000000
	CHANNELS 6 Xposition Yposition Zposition Xrotation Yrotation Zrotation
	JOINT LeftUpLeg_virtual
	{
		OFFSET 0.000000 0.000000 0.000000
		CHANNELS 3 Xrotation Yrotation Zrotation
		JOINT LeftUpLeg
		{
			OFFSET 18.735201 -5.666702 -4.541200
			CHANNELS 3 Xrotation Yrotation Zrotation
			JOINT LeftLeg
			{
				OFFSET -0.021200 -31.938179 0.493100
				CHANNELS 3 Xrotation Yrotation Zrotation
				JOINT LeftFoot
				{
					OFFSET 0.021200 -31.938179 -4.336299
					CHANNELS 3 Xrotation Yrotation Zrotation
					JOINT LeftToeBase
					{
						OFFSET 0.943001 -26.722000 15.023500
						CHANNELS 3 Xrotation Yrotation Zrotation
						End Site
						{
							OFFSET 0 0 0
						}
					}
				}
			}
		}
	}
	JOINT RightUpLeg_virtual
	{
		OFFSET 0.000000 0.000000 0.000000
		CHANNELS 3 Xrotation Yrotation Zrotation
		JOINT RightUpLeg
		{
			OFFSET -18.735201 -5.666702 -4.541200
			CHANNELS 3 Xrotation Yrotation Zrotation
			JOINT RightLeg
			{
				OFFSET 0.018946 -31.938133 0.493100
				CHANNELS 3 Xrotation Yrotation Zrotation
				JOINT RightFoot
				{
					OFFSET -0.018946 -31.938126 -4.336299
					CHANNELS 3 Xrotation Yrotation Zrotation
					JOINT RightToeBase
					{
						OFFSET -0.943001 -26.722004 15.023500
						CHANNELS 3 Xrotation Yrotation Zrotation
						End Site
						{
							OFFSET 0 0 0
						}
					}
				}
			}
		}
	}
	JOINT Hips_virtual
	{
		OFFSET 0.000000 0.000000 0.000000
		CHANNELS 3 Xrotation Yrotation Zrotation
		JOINT Hips
		{
			OFFSET -0.000000 -0.000000 -0.000000
			CHANNELS 3 Xrotation Yrotation Zrotation
			JOINT Spine
			{
				OFFSET 0.000000 10.199997 -0.299500
				CHANNELS 3 Xrotation Yrotation Zrotation
				JOINT Spine1
				{
					OFFSET 0.000000 11.900002 -1.516600
					CHANNELS 3 Xrotation Yrotation Zrotation
					JOINT Spine2
					{
						OFFSET 0.000000 13.600006 -2.842500
						CHANNELS 3 Xrotation Yrotation Zrotation
						JOINT Neck_virtual
						{
							OFFSET 0.000000 0.000000 0.000000
							CHANNELS 3 Xrotation Yrotation Zrotation
							JOINT Neck
							{
								OFFSET 0.000000 9.624100 -2.890100
								CHANNELS 3 Xrotation Yrotation Zrotation
								JOINT Head
								{
									OFFSET 0.000000 14.068802 -1.351900
									CHANNELS 3 Xrotation Yrotation Zrotation
									End Site
									{
										OFFSET 0 0 0
									}
								}
							}
						}
						JOINT LeftShoulder_virtual
						{
							OFFSET 0.000000 0.000000 0.000000
							CHANNELS 3 Xrotation Yrotation Zrotation
							JOINT LeftShoulder
							{
								OFFSET 15.263000 10.923401 -0.547700
								CHANNELS 3 Xrotation Yrotation Zrotation
								JOINT LeftArm
								{
									OFFSET 25.438599 -2.830597 -13.032500
									CHANNELS 3 Xrotation Yrotation Zrotation
									JOINT LeftForeArm
									{
										OFFSET 29.960503 0.000000 0.000000
										CHANNELS 3 Xrotation Yrotation Zrotation
										JOINT LeftHand
										{
											OFFSET 27.849251 0.000000 0.000000
											CHANNELS 3 Xrotation Yrotation Zrotation
											End Site
											{
												OFFSET 0 0 0
											}
										}
									}
								}
							}
						}
						JOINT RightShoulder_virtual
						{
							OFFSET 0.000000 0.000000 0.000000
							CHANNELS 3 Xrotation Yrotation Zrotation
							JOINT RightShoulder
							{
								OFFSET -15.263000 10.923401 -0.547700
								CHANNELS 3 Xrotation Yrotation Zrotation
								JOINT RightArm
								{
									OFFSET -25.438599 -2.830597 -13.032500
									CHANNELS 3 Xrotation Yrotation Zrotation
									JOINT RightForeArm
									{
										OFFSET -29.960503 0.000000 0.000000
										CHANNELS 3 Xrotation Yrotation Zrotation
										JOINT RightHand
										{
											OFFSET -27.849251 0.000000 0.000000
											CHANNELS 3 Xrotation Yrotation Zrotation
											End Site
											{
												OFFSET 0 0 0
											}
										}
									}
								}
							}
						}
					}
				}
			}
		}
	}
}
MOTION
Frames: 5
Frame Time: 0.03333333
0.177636 94.013420 3.514640 0.000000 0.000000 0.000000 7.919532 -6.405025 -1.948451 -30.535720 10.186754 14.065164 34.735702 1.272154 0.114467 -12.798941 1.244219 -4.118884 0.000000 0.000000 0.000000 8.425628 -5.820166 6.103308 -18.582093 -8.168097 -8.530355 26.906313 -4.819281 -3.342403 -20.231015 -7.270191 2.322930 0.000000 0.000000 0.000000 -1.123936 -3.005925 -0.129327 -1.381038 3.350721 -3.172661 5.553642 0.330642 1.995825 1.279587 0.474037 1.339094 0.000000 0.000000 0.000000 3.817077 0.227056 0.957600 0.165745 -0.176313 0.401051 0.000000 0.000000 0.000000 2.206709 -0.873653 -0.194219 0.664045 -11.652547 -8.219224 3.585285 -2.824925 -56.928442 4.572053 -32.411782 -5.266721 0.000000 0.000000 0.000000 3.133460 0.814103 2.140758 0.626778 10.906111 14.443412 8.989663 7.739592 51.685322 6.791267 35.557152 2.567970 0.000000 0.000000 0.000000 
0.202567 94.035881 3.495940 0.000000 0.000000 0.000000 7.861012 -6.445485 -2.010291 -30.608222 10.186020 14.002861 34.735938 1.297787 0.123879 -12.793877 1.267228 -4.095337 0.000000 0.000000 0.000000 8.451878 -5.775489 6.135483 -18.541978 -8.165622 -8.486688 26.867639 -4.803807 -3.358361 -20.264855 -7.245595 2.296933 0.000000 0.000000 0.000000 -1.127379 -3.073532 -0.128811 -1.444847 3.427699 -3.140995 5.593495 0.265842 1.967153 1.294084 0.461457 1.346505 0.000000 0.000000 0.000000 3.838775 0.222017 0.965820 0.180487 -0.178203 0.392776 0.000000 0.000000 0.000000 2.224332 -0.906812 -0.174588 0.697090 -11.772690 -8.216928 3.657639 -2.689771 -56.917404 4.608243 -32.207566 -5.305318 0.000000 0.000000 0.000000 3.111080 0.820957 2.137210 0.647217 10.886201 14.426609 8.937250 7.618493 51.788683 6.753809 35.464658 2.603015 0.000000 0.000000 0.000000 
0.247405 94.074295 3.466937 0.000000 0.000000 0.000000 7.749187 -6.506731 -2.123718 -30.748477 10.186568 13.891551 34.748034 1.349403 0.140594 -12.775274 1.314227 -4.050162 0.000000 0.000000 0.000000 8.500686 -5.704052 6.193252 -18.468647 -8.163784 -8.408966 26.797259 -4.769250 -3.385294 -20.326045 -7.195338 2.256847 0.000000 0.000000 0.000000 -1.135470 -3.204191 -0.124312 -1.581519 3.575538 -3.084811 5.667579 0.149092 1.916707 1.324971 0.435790 1.358895 0.000000 0.000000 0.000000 3.882651 0.213677 0.981998 0.208947 -0.182205 0.377583 0.000000 0.000000 0.000000 2.259875 -0.967163 -0.138808 0.756038 -11.989969 -8.210885 3.778366 -2.424738 -56.892201 4.662538 -31.841201 -5.381679 0.000000 0.000000 0.000000 3.075762 0.831982 2.130026 0.689532 10.841437 14.387848 8.846875 7.405193 51.981339 6.688391 35.300228 2.668674 0.000000 0.000000 0.000000 
0.303775 94.118057 3.440997 0.000000 0.000000 0.000000 7.595000 -6.556213 -2.270571 -30.945722 10.191823 13.754074 34.787236 1.426473 0.161318 -12.732377 1.385768 -3.986907 0.000000 0.000000 0.000000 8.565121 -5.635290 6.265724 -18.374401 -8.167597 -8.313057 26.706683 -4.710801 -3.415956 -20.403640 -7.118289 2.219864 0.000000 0.000000 0.000000 -1.148561 -3.386459 -0.109852 -1.797904 3.782915 -3.016005 5.766938 0.002304 1.855935 1.373236 0.396804 1.372976 0.000000 0.000000 0.000000 3.949100 0.204749 1.005593 0.249115 -0.188564 0.357841 0.000000 0.000000 0.000000 2.312324 -1.044478 -0.092566 0.828919 -12.265731 -8.200140 3.908925 -2.038708 -56.845048 4.706535 -31.377711 -5.491430 0.000000 0.000000 0.000000 3.042478 0.843014 2.119249 0.755408 10.764714 14.320772 8.743965 7.146723 52.239599 6.610342 35.096982 2.757314 0.000000 0.000000 0.000000 
0.362661 94.156105 3.431649 0.000000 0.000000 0.000000 7.414963 -6.560852 -2.428878 -31.182214 10.205199 13.616336 34.861880 1.526084 0.183038 -12.660299 1.480055 -3.909968 0.000000 0.000000 0.000000 8.636233 -5.599350 6.340824 -18.273855 -8.181850 -8.216213 26.608537 -4.625737 -3.444342 -20.485329 -7.014759 2.199782 0.000000 0.000000 0.000000 -1.163854 -3.600088 -0.078709 -2.084894 4.034167 -2.947454 5.882348 -0.149587 1.797177 1.435597 0.345653 1.386662 0.000000 0.000000 0.000000 4.037478 0.197918 1.035702 0.298097 -0.197145 0.336326 0.000000 0.000000 0.000000 2.377776 -1.126908 -0.041944 0.902422 -12.556086 -8.186874 4.009824 -1.543494 -56.762847 4.712759 -30.879456 -5.624001 0.000000 0.000000 0.000000 3.025918 0.850086 2.105288 0.845131 10.650891 14.222762 8.657880 6.891940 52.536425 6.535260 34.890102 2.859737 0.000000 0.000000 0.000000 
